<svg xmlns="http://www.w3.org/2000/svg" width="446" height="114" viewBox="0 0 446 114">
  <metadata><?xpacket begin="﻿" id="W5M0MpCehiHzreSzNTczkc9d"?>
    <x:xmpmeta xmlns:x="adobe:ns:meta/" x:xmptk="Adobe XMP Core 5.6-c142 79.160924, 2017/07/13-01:06:39">
     <rdf:RDF xmlns:rdf="http://www.w3.org/1999/02/22-rdf-syntax-ns#">
      <rdf:Description rdf:about=""/>
    </rdf:RDF>
  </x:xmpmeta>
  <?xpacket end="w"?></metadata>
  <defs>
    <style>
      .cls-1 {
      fill: #05647c;
      fill-rule: evenodd;
      }
    </style>
  </defs>
  <path id="SafetyBeat" class="cls-1" d="M199.523,9.2q-9.477-9.206-26.191-9.2a29.9,29.9,0,0,0-9.439,1.6,38.225,38.225,0,0,0-8.952,4.306Q150.8,8.6,147.814,10.978a68.808,68.808,0,0,0-5.67,5.048,69.15,69.15,0,0,0-5.671-5.048q-2.985-2.375-7.126-5.084a38.282,38.282,0,0,0-8.954-4.306,29.9,29.9,0,0,0-9.439-1.6q-16.714,0-26.19,9.2T75.288,34.731a32.367,32.367,0,0,0,1.754,10.243,44.833,44.833,0,0,0,3.992,8.982,65.691,65.691,0,0,0,5.074,7.238q2.835,3.526,4.141,4.862A24.729,24.729,0,0,0,92.3,67.985l46.56,44.686a4.7,4.7,0,0,0,6.566,0l46.486-44.539Q209,51.137,209,34.731,209,18.4,199.523,9.2ZM48.289,97.994c-2.316,0-4.32-1.017-4.79-3.257L37.008,64.081l-4.275,7.282a5.042,5.042,0,0,1-4.208,2.515H4.885a4.825,4.825,0,1,1,0-9.648H25.73l9.294-15.494a4.908,4.908,0,0,1,8.994,1.473l3.93,18.735L56.909,19.9A4.807,4.807,0,0,1,61.724,16h0.021a4.794,4.794,0,0,1,4.8,3.93l9.564,55.056L79.185,67.3a4.892,4.892,0,0,1,4.545-3.073h43.387a4.825,4.825,0,1,1,0,9.648H87.052L78.777,94.507a4.906,4.906,0,0,1-9.364-.96L61.608,48.562,53.1,94.614c-0.416,2.272-2.408,3.38-4.749,3.38H48.289Zm122.558-26.68c10.2,0,15.146-5.1,15.146-11.066,0-13.106-20.755-8.567-20.755-15.145,0-2.244,1.887-4.08,6.782-4.08a20.158,20.158,0,0,1,9.893,2.8l2.55-6.272a23.946,23.946,0,0,0-12.392-3.162c-10.148,0-15.043,5.048-15.043,11.117,0,13.259,20.755,8.669,20.755,15.349,0,2.193-1.989,3.825-6.885,3.825a20.994,20.994,0,0,1-11.779-3.723l-2.805,6.221C159.475,69.632,165.187,71.314,170.847,71.314Zm31.314-28.455a21.09,21.09,0,0,0-11.831,3.315l2.856,5.558a13.189,13.189,0,0,1,7.9-2.55c4.283,0,6.323,1.989,6.323,5.405H201.09c-8.363,0-11.78,3.366-11.78,8.21,0,4.743,3.825,8.312,10.25,8.312,4.029,0,6.884-1.326,8.363-3.825V70.7h7.445V55.047C215.368,46.735,210.524,42.859,202.161,42.859Zm-0.612,22.9c-2.805,0-4.488-1.326-4.488-3.315,0-1.836,1.173-3.213,4.9-3.213h5.456v2.8A5.861,5.861,0,0,1,201.549,65.756Zm29.732-23.05c0-2.7,1.275-3.978,3.621-3.978a5.571,5.571,0,0,1,3.213.969l2.09-5.762a11.273,11.273,0,0,0-6.068-1.479c-6.833,0-10.607,4.029-10.607,10.2v1.224H219.3V50h4.232V70.7h7.955V50h6.834V43.879h-7.038V42.706Zm37.535,14.381c0-8.822-6.222-14.228-14.279-14.228-8.363,0-14.635,5.915-14.635,14.126,0,8.159,6.17,14.126,15.655,14.126,4.947,0,8.771-1.53,11.321-4.437l-4.233-4.59a9.3,9.3,0,0,1-6.884,2.652c-4.181,0-7.088-2.091-7.853-5.507h20.755C268.714,58.566,268.816,57.7,268.816,57.087Zm-14.228-8.21a6.52,6.52,0,0,1,6.732,5.711H247.806A6.5,6.5,0,0,1,254.588,48.877Zm35.088,14.89a5.362,5.362,0,0,1-3.213,1.02c-2.142,0-3.417-1.275-3.417-3.621V50h6.834V43.879h-6.834V37.2h-7.955v6.68h-4.232V50h4.232v11.27c0,6.527,3.774,9.842,10.25,9.842a11.372,11.372,0,0,0,6.477-1.734Zm25.7-20.5L307.628,61.88l-7.7-18.613h-8.21L303.6,70.906l-0.1.255c-1.071,2.448-2.3,3.417-4.488,3.417a7.051,7.051,0,0,1-4.487-1.734l-2.907,5.66a12.181,12.181,0,0,0,7.649,2.5c4.947,0,8.72-1.989,11.372-8.618l12.392-29.118H315.38Zm37.687,8.873a8.581,8.581,0,0,0,4.743-7.853c0-5.559-4.59-9.281-13.514-9.281h-17.44V70.7h18.46c9.383,0,14.279-3.57,14.279-9.74A8.815,8.815,0,0,0,353.067,52.14Zm-9.791-10.913c4.029,0,6.222,1.377,6.222,4.182s-2.193,4.233-6.222,4.233h-8.21V41.227h8.21ZM344.7,64.481h-9.638V55.659H344.7c4.284,0,6.579,1.428,6.579,4.437C351.283,63.155,348.988,64.481,344.7,64.481Zm47.48-7.394c0-8.822-6.221-14.228-14.278-14.228-8.363,0-14.636,5.915-14.636,14.126,0,8.159,6.171,14.126,15.656,14.126,4.946,0,8.771-1.53,11.321-4.437l-4.233-4.59a9.3,9.3,0,0,1-6.884,2.652c-4.182,0-7.089-2.091-7.854-5.507h20.755C392.082,58.566,392.184,57.7,392.184,57.087Zm-14.227-8.21a6.52,6.52,0,0,1,6.731,5.711H371.174A6.5,6.5,0,0,1,377.957,48.877Zm29.835-6.017a21.09,21.09,0,0,0-11.831,3.315l2.856,5.558a13.191,13.191,0,0,1,7.9-2.55c4.283,0,6.323,1.989,6.323,5.405h-6.323c-8.363,0-11.78,3.366-11.78,8.21,0,4.743,3.825,8.312,10.25,8.312,4.029,0,6.884-1.326,8.363-3.825V70.7H421V55.047C421,46.735,416.155,42.859,407.792,42.859Zm-0.612,22.9c-2.805,0-4.488-1.326-4.488-3.315,0-1.836,1.173-3.213,4.9-3.213h5.456v2.8A5.861,5.861,0,0,1,407.18,65.756Zm36.566-1.989a5.362,5.362,0,0,1-3.213,1.02c-2.142,0-3.417-1.275-3.417-3.621V50h6.834V43.879h-6.834V37.2h-7.955v6.68h-4.232V50h4.232v11.27c0,6.527,3.774,9.842,10.25,9.842a11.372,11.372,0,0,0,6.477-1.734Z"/>
</svg>