<svg xmlns="http://www.w3.org/2000/svg" width="209" height="114" viewBox="0 0 209 114">
  <metadata><?xpacket begin="﻿" id="W5M0MpCehiHzreSzNTczkc9d"?>
<x:xmpmeta xmlns:x="adobe:ns:meta/" x:xmptk="Adobe XMP Core 5.6-c142 79.160924, 2017/07/13-01:06:39        ">
   <rdf:RDF xmlns:rdf="http://www.w3.org/1999/02/22-rdf-syntax-ns#">
      <rdf:Description rdf:about=""/>
   </rdf:RDF>
</x:xmpmeta>
                                                                                                    
                                                                                                    
                                                                                                    
                                                                                                    
                                                                                                    
                                                                                                    
                                                                                                    
                                                                                                    
                                                                                                    
                                                                                                    
                                                                                                    
                                                                                                    
                                                                                                    
                                                                                                    
                                                                                                    
                                                                                                    
                                                                                                    
                                                                                                    
                                                                                                    
                                                                                                    
                           
<?xpacket end="w"?></metadata>
<defs>
    <style>
      .cls-1 {
        fill: #05647c;
        fill-rule: evenodd;
      }
    </style>
  </defs>
  <path id="Forma_1" data-name="Forma 1" class="cls-1" d="M199.523,9.2q-9.477-9.206-26.191-9.2a29.9,29.9,0,0,0-9.439,1.6,38.225,38.225,0,0,0-8.952,4.306Q150.8,8.6,147.814,10.978a68.808,68.808,0,0,0-5.67,5.048,69.15,69.15,0,0,0-5.671-5.048q-2.985-2.375-7.126-5.084a38.282,38.282,0,0,0-8.954-4.306,29.9,29.9,0,0,0-9.439-1.6q-16.714,0-26.19,9.2T75.288,34.731a32.367,32.367,0,0,0,1.754,10.243,44.833,44.833,0,0,0,3.992,8.982,65.691,65.691,0,0,0,5.074,7.238q2.835,3.526,4.141,4.862A24.729,24.729,0,0,0,92.3,67.985l46.56,44.686a4.7,4.7,0,0,0,6.566,0l46.486-44.539Q209,51.137,209,34.731,209,18.4,199.523,9.2ZM48.289,97.994c-2.316,0-4.32-1.017-4.79-3.257L37.008,64.081l-4.275,7.282a5.042,5.042,0,0,1-4.208,2.515H4.885a4.825,4.825,0,1,1,0-9.648H25.73l9.294-15.494a4.908,4.908,0,0,1,8.994,1.473l3.93,18.735L56.909,19.9A4.807,4.807,0,0,1,61.724,16h0.021a4.794,4.794,0,0,1,4.8,3.93l9.564,55.056L79.185,67.3a4.892,4.892,0,0,1,4.545-3.073h43.387a4.825,4.825,0,1,1,0,9.648H87.052L78.777,94.507a4.906,4.906,0,0,1-9.364-.96L61.608,48.562,53.1,94.614c-0.416,2.272-2.408,3.38-4.749,3.38H48.289Z"/>
</svg>
